<svg xmlns="http://www.w3.org/2000/svg" height="20" viewBox="0 96 960 960" width="20"><path d="M479.961 912Q340 912 242 814t-98-238q0-140 97.93-238t237.831-98q13.057 0 25.648 1T531 244q-39 29-62 72t-23 92q0 85 58.5 143.5T648 610q49 0 92-23t72-62q2 13 3 25.591 1 12.591 1 25.648 0 139.901-98.039 237.831-98.04 97.93-238 97.93Zm.039-72q82 0 148.776-47.074Q695.553 745.853 727 670q-20 5-39.667 8.5Q667.667 682 648 682q-113.858 0-193.929-80.071T374 408q0-19.667 3.5-39.333Q381 349 386 329q-75.853 31.447-122.926 98.224Q216 494 216 576q0 110 77 187t187 77Zm-14-250Z"/></svg>