<svg xmlns="http://www.w3.org/2000/svg" height="20" viewBox="0 96 960 960" width="20"><path d="M480 696q50 0 85-35t35-85q0-50-35-85t-85-35q-50 0-85 35t-35 85q0 50 35 85t85 35Zm-.226 72Q400 768 344 711.774t-56-136Q288 496 344.226 440t136-56Q560 384 616 440.226t56 136Q672 656 615.774 712t-136 56ZM84 612q-15.3 0-25.65-10.289Q48 591.421 48 576.211 48 561 58.35 550.5 68.7 540 84 540h96q15.3 0 25.65 10.289 10.35 10.29 10.35 25.5Q216 591 205.65 601.5 195.3 612 180 612H84Zm696 0q-15.3 0-25.65-10.289-10.35-10.29-10.35-25.5Q744 561 754.35 550.5 764.7 540 780 540h96q15.3 0 25.65 10.289 10.35 10.29 10.35 25.5Q912 591 901.65 601.5 891.3 612 876 612h-96ZM480.211 312Q465 312 454.5 301.65 444 291.3 444 276v-96q0-15.3 10.289-25.65 10.29-10.35 25.5-10.35Q495 144 505.5 154.35 516 164.7 516 180v96q0 15.3-10.289 25.65-10.29 10.35-25.5 10.35Zm0 696Q465 1008 454.5 997.65 444 987.3 444 972v-96q0-15.3 10.289-25.65 10.29-10.35 25.5-10.35Q495 840 505.5 850.35 516 860.7 516 876v96q0 15.3-10.289 25.65-10.29 10.35-25.5 10.35ZM242 389l-50-51q-11-10-11-24.5t11-25.5q10.435-11 25.217-11Q232 277 242 288l51 50q11 10.941 11 25.529 0 14.589-11 25.53Q283 400 268 400t-26-11Zm476 475-51-50q-11-10.667-11-25.333Q656 774 667 763q10-11 25-11t26 11l50 51q11 10 11 24.5T768.478 864Q757 875 743 875q-14 0-25-11Zm-51.059-475Q656 379 656 364t11-26l51-50q11-11 25-10.5t25 10.543Q779 299 779 313t-11 25l-50 51q-10.941 11-25.529 11-14.589 0-25.53-11ZM192 864q-11-10.435-11-25.217Q181 824 192 814l50-51q10.667-10 25.333-10Q282 753 293 763q11 11 10.542 25.667Q303.083 803.333 293 814l-51 50q-10 11-24.5 11T192 864Zm288-288Z"/></svg>